<!--?xml version="1.0" encoding="UTF-8" standalone="no"?-->
<!-- Created with Inkscape (http://www.inkscape.org/) -->

<svg xmlns:dc="http://purl.org/dc/elements/1.1/" xmlns:cc="http://creativecommons.org/ns#"
	 xmlns:rdf="http://www.w3.org/1999/02/22-rdf-syntax-ns#" xmlns="http://www.w3.org/2000/svg"
	 xmlns:sodipodi="http://sodipodi.sourceforge.net/DTD/sodipodi-0.dtd"
	 xmlns:inkscape="http://www.inkscape.org/namespaces/inkscape" width="36.672352mm" height="23.610914mm"
	 viewBox="0 0 129.9414 83.660719" id="svg2" version="1.1" inkscape:version="0.91 r13725"
	 sodipodi:docname="archivewheel.svg">
	<defs id="defs4"></defs>
	<sodipodi:namedview id="base" pagecolor="#ffffff" bordercolor="#666666" borderopacity="1.0"
						inkscape:pageopacity="0.0" inkscape:pageshadow="2" inkscape:zoom="5.6568543"
						inkscape:cx="86.932734" inkscape:cy="36.231051" inkscape:document-units="px"
						inkscape:current-layer="layer1" showgrid="false" fit-margin-top="0" fit-margin-left="0"
						fit-margin-right="0" fit-margin-bottom="0" inkscape:window-width="1920"
						inkscape:window-height="1017" inkscape:window-x="-8" inkscape:window-y="-8"
						inkscape:window-maximized="1"></sodipodi:namedview>
	<metadata id="metadata7">
		<rdf:rdf>
			<cc:work rdf:about="">
				<dc:format>image/svg+xml</dc:format>
				<dc:type rdf:resource="http://purl.org/dc/dcmitype/StillImage"></dc:type>
				<dc:title></dc:title>
			</cc:work>
		</rdf:rdf>
	</metadata>
	<g inkscape:label="Layer 1" inkscape:groupmode="layer" id="layer1" transform="translate(-56.071423,-20.933636)">
		<path style="font-style:normal;font-variant:normal;font-weight:normal;font-stretch:normal;font-size:medium;line-height:125%;font-family:Pacifico;-inkscape-font-specification:Pacifico;letter-spacing:0px;word-spacing:0px;fill:none;fill-opacity:1;stroke:#000000;stroke-width:1;stroke-linecap:round;stroke-linejoin:miter;stroke-miterlimit:4;stroke-dasharray:none;stroke-opacity:1"
			  d="m 103.79587,48.064498 c -0.6005,0.241519 -1.18377,0.369141 -1.74804,0.369141 -0.20834,0 -0.41016,-0.03906 -0.60547,-0.117188 -0.1823,-0.07812 -0.35156,-0.208332 -0.50782,-0.390624 -0.14322,-0.195313 -0.26041,-0.449219 -0.35156,-0.761719 -0.0911,-0.3125 -0.13672,-0.703125 -0.13672,-1.171875 0,-0.273438 0.0325,-0.611979 0.0977,-1.015625 0.0651,-0.416667 0.13672,-0.839844 0.21484,-1.269531 0.0781,-0.442709 0.14971,-0.859375 0.21485,-1.25 0.0651,-0.403646 0.0977,-0.716146 0.0977,-0.9375 0,-0.286458 -0.0521,-0.540365 -0.15625,-0.761719 -0.10416,-0.234375 -0.2474,-0.429688 -0.42968,-0.585938 -0.16928,-0.15625 -0.3711,-0.273437 -0.605473,-0.351562 -0.234375,-0.09115 -0.47526,-0.136719 -0.722656,-0.136719 -0.716147,0 -1.347657,0.195313 -1.894532,0.585938 -0.546875,0.377604 -1.035156,0.846354 -1.464844,1.40625 -0.429687,0.559896 -0.807291,1.165364 -1.132812,1.816406 -0.325521,0.638021 -0.61849,1.217448 -0.878906,1.738281 l -0.214844,0 c -0.02604,-0.664063 -0.03906,-1.334635 -0.03906,-2.011719 l 0,-1.757812 c 0,-0.403646 -0.01302,-0.722656 -0.03906,-0.957032 -0.01302,-0.234374 -0.06511,-0.410155 -0.15625,-0.527343 -0.09115,-0.13021 -0.234375,-0.208335 -0.429687,-0.234375 -0.182292,-0.03906 -0.442709,-0.05859 -0.78125,-0.05859 -0.29948,0 -0.553386,0.01953 -0.761719,0.05859 -0.195312,0.02604 -0.364583,0.09115 -0.507813,0.195312 -0.130208,0.09115 -0.247396,0.221355 -0.351562,0.390625 -0.104167,0.169271 -0.208334,0.397135 -0.3125,0.683594 -0.169271,0.429687 -0.338542,0.976562 -0.507813,1.640625 -0.16927,0.664062 -0.338541,1.393229 -0.507812,2.1875 -0.169271,0.794271 -0.332031,1.634115 -0.488281,2.519531 -0.14323,0.872396 -0.273438,1.731771 -0.390626,2.578125 -0.03579,0.290788 -0.05671,0.550466 -0.08789,0.832032 -0.01921,0.01087 -0.0293,0.01628 -0.04883,0.02734"
			  id="path4401" class="dfGnBPMn_0"></path>
		<path style="font-style:normal;font-variant:normal;font-weight:normal;font-stretch:normal;font-size:medium;line-height:125%;font-family:Pacifico;-inkscape-font-specification:Pacifico;letter-spacing:0px;word-spacing:0px;fill:none;fill-opacity:1;stroke:#000000;stroke-width:1;stroke-linecap:round;stroke-linejoin:miter;stroke-miterlimit:4;stroke-dasharray:none;stroke-opacity:1"
			  d="m 88.1612,50.796917 c -0.390625,0.221354 -0.813802,0.46875 -1.269532,0.742188 -0.442708,0.260416 -0.911457,0.527343 -1.40625,0.800781 -0.48177,0.260417 -0.95052,0.501302 -1.40625,0.722656 -0.442707,0.208334 -0.865885,0.384115 -1.269531,0.527344 -0.390625,0.130208 -0.716146,0.195312 -0.976562,0.195312 -0.143229,0 -0.260417,-0.02604 -0.351563,-0.07812 -0.09114,-0.0651 -0.162757,-0.175782 -0.214844,-0.332032 -0.05208,-0.15625 -0.09115,-0.364583 -0.117187,-0.625 -0.01302,-0.273437 -0.01953,-0.618489 -0.01953,-1.035156 0,-0.533855 0.01302,-1.048177 0.03906,-1.542969 0.02605,-0.494792 0.0586,-1.028646 0.09766,-1.601562 0.195313,-0.677084 0.436199,-1.471355 0.722657,-2.382813 0.286458,-0.911458 0.579427,-1.881511 0.878906,-2.910156 0.3125,-1.028646 0.61849,-2.089844 0.917969,-3.183594 0.3125,-1.09375 0.592448,-2.174479 0.839844,-3.242187 0.247396,-1.067708 0.442708,-2.089844 0.585937,-3.066407 0.15625,-0.976562 0.234375,-1.855468 0.234375,-2.636718 0,-1.002604 -0.07161,-1.796875 -0.214844,-2.382813 -0.130208,-0.585937 -0.3125,-1.028645 -0.546875,-1.328125 -0.234375,-0.3125 -0.507812,-0.520833 -0.820312,-0.625 -0.3125,-0.104168 -0.644532,-0.169272 -0.996094,-0.195312 -0.351563,-0.03907 -0.709635,-0.07813 -1.074219,-0.117188 -0.364583,-0.05208 -0.722656,-0.182291 -1.074218,-0.390625 l 0,-0.09766 0,-0.117188 c 0.01302,-0.05208 0.01953,-0.110674 0.01953,-0.175781 0,-0.09115 -0.01953,-0.195312 -0.05859,-0.3125 -0.03906,-0.117187 -0.130208,-0.227864 -0.273437,-0.332031 -0.130208,-0.117185 -0.332031,-0.208331 -0.605469,-0.273438 -0.260417,-0.07812 -0.61198,-0.117187 -1.054688,-0.117187 -1.627604,0 -3.196614,0.221354 -4.707031,0.664062 -1.510417,0.442709 -2.949218,1.054688 -4.316406,1.835938 -1.367188,0.768229 -2.65625,1.686198 -3.867188,2.753906 -1.197916,1.054688 -2.304687,2.207032 -3.320312,3.457032 -1.015625,1.236979 -1.920573,2.545573 -2.714844,3.925781 -0.794271,1.380208 -1.471355,2.773437 -2.03125,4.179687 -0.559896,1.40625 -0.989583,2.79948 -1.289062,4.179688 -0.286459,1.380208 -0.429688,2.701823 -0.429688,3.964844 0,1.666666 0.240886,3.125 0.722656,4.375 0.494792,1.25 1.158854,2.298177 1.992188,3.144531 0.833333,0.833333 1.790364,1.458333 2.871094,1.875 1.09375,0.429688 2.246093,0.644531 3.457031,0.644531 1.106771,0 2.213542,-0.195312 3.320312,-0.585938 1.106771,-0.390624 2.174479,-0.963541 3.203125,-1.71875 1.041667,-0.768229 2.01823,-1.712239 2.929688,-2.832031 0.924479,-1.132812 1.751302,-2.434896 2.480468,-3.90625 -0.104163,0.61198 -0.188799,1.184896 -0.253906,1.71875 -0.06511,0.520834 -0.09766,1.009115 -0.09766,1.464844 0,1.080729 0.110677,1.959635 0.332031,2.636719 0.221354,0.677083 0.501302,1.210937 0.839844,1.601562 0.351562,0.377604 0.735677,0.638021 1.152344,0.78125 0.429688,0.14323 0.852864,0.214844 1.269531,0.214844 0.598958,0 1.217448,-0.08463 1.855469,-0.253906 0.651042,-0.15625 1.295573,-0.371094 1.933593,-0.644532 0.638021,-0.273437 1.263021,-0.585937 1.875,-0.9375 0.61198,-0.351562 1.178386,-0.709635 1.699219,-1.074218 0.138822,-0.09819 0.240196,-0.191752 0.371094,-0.289063 5.27e-4,0.0051 -6.82e-4,0.01046 0,0.01563"
			  id="path4399" class="dfGnBPMn_1"></path>
		<path style="font-style:normal;font-variant:normal;font-weight:normal;font-stretch:normal;font-size:medium;line-height:125%;font-family:Pacifico;-inkscape-font-specification:Pacifico;letter-spacing:0px;word-spacing:0px;fill:none;fill-opacity:1;stroke:#000000;stroke-width:1;stroke-linecap:round;stroke-linejoin:miter;stroke-miterlimit:4;stroke-dasharray:none;stroke-opacity:1"
			  d="m 88.024483,55.875047 c 0.0591,0.447782 0.182292,0.917969 0.351563,1.308594 0.182291,0.377604 0.436198,0.683594 0.761718,0.917969 0.325521,0.221354 0.755209,0.332031 1.289063,0.332031 0.234375,0 0.449218,-0.03906 0.644531,-0.117188 0.195312,-0.09115 0.377604,-0.240885 0.546875,-0.449218 0.169271,-0.208334 0.332031,-0.475261 0.488281,-0.800782 0.169271,-0.338541 0.345052,-0.761718 0.527344,-1.269531 l 3.496094,-9.746093 0.3125,0 c 0.104166,0.820312 0.240885,1.634114 0.410156,2.441406 0.169271,0.794271 0.429687,1.516927 0.78125,2.167968 0.351562,0.638021 0.826823,1.158855 1.425781,1.5625 0.598958,0.390626 1.386711,0.585938 2.363281,0.585938 0.54687,0 1.08073,-0.07813 1.60157,-0.234375 0.2528,-0.08016 0.49909,-0.168913 0.74022,-0.263672"
			  id="path4397" class="dfGnBPMn_2"></path>
		<path style="font-style:normal;font-variant:normal;font-weight:normal;font-stretch:normal;font-size:medium;line-height:125%;font-family:Pacifico;-inkscape-font-specification:Pacifico;letter-spacing:0px;word-spacing:0px;fill:none;fill-opacity:1;stroke:#000000;stroke-width:1;stroke-linecap:round;stroke-linejoin:miter;stroke-miterlimit:4;stroke-dasharray:none;stroke-opacity:1"
			  d="m 103.76471,52.310594 c 0.0729,0.372488 0.15964,0.741749 0.27539,1.103516 0.3125,0.976562 0.77474,1.835937 1.38672,2.578125 0.61198,0.742188 1.36719,1.334636 2.26563,1.777344 0.91145,0.442708 1.96614,0.664062 3.16407,0.664062 0.69011,0 1.36718,-0.104167 2.03125,-0.3125 0.67708,-0.221355 1.32161,-0.501302 1.93358,-0.839844 0.625,-0.351562 1.21745,-0.748698 1.77735,-1.191406 0.57291,-0.442709 1.10027,-0.898438 1.58204,-1.367188 0.27201,-0.26264 0.51449,-0.558394 0.80078,-0.814453"
			  id="path4395" class="dfGnBPMn_3"></path>
		<path style="font-style:normal;font-variant:normal;font-weight:normal;font-stretch:normal;font-size:medium;line-height:125%;font-family:Pacifico;-inkscape-font-specification:Pacifico;letter-spacing:0px;word-spacing:0px;fill:none;fill-opacity:1;stroke:#000000;stroke-width:1;stroke-linecap:round;stroke-linejoin:miter;stroke-miterlimit:4;stroke-dasharray:none;stroke-opacity:1"
			  d="m 118.98152,53.90825 c 0.0333,-0.02979 0,0.126553 0,0.169922 0,0.546875 0.0195,1.080729 0.0586,1.601563 0.0391,0.520833 0.1237,0.989583 0.25391,1.40625 0.13021,0.403646 0.31901,0.729166 0.56641,0.976562 0.24739,0.247396 0.58593,0.371094 1.01562,0.371094 0.32552,0 0.59245,-0.07161 0.80078,-0.214844 0.20833,-0.143229 0.39714,-0.351562 0.56641,-0.625 0.18229,-0.286458 0.36459,-0.644531 0.54687,-1.074218 0.1823,-0.442708 0.41667,-0.957031 0.70313,-1.542969 0.57291,-1.184896 1.21093,-2.330729 1.91406,-3.4375 0.71615,-1.119792 1.40625,-2.122396 2.07031,-3.007813 0.66407,-0.898437 1.25651,-1.640624 1.77735,-2.226562 0.53385,-0.585938 0.91146,-0.950521 1.13281,-1.09375 l 0.41015,0.05859 c -0.0391,0.03906 -0.1237,0.182291 -0.2539,0.429687 -0.13021,0.247395 -0.28646,0.566406 -0.46875,0.957031 -0.16927,0.390625 -0.35807,0.833333 -0.56641,1.328125 -0.19531,0.494792 -0.37761,1.002604 -0.54687,1.523438 -0.15626,0.520833 -0.29297,1.041666 -0.41016,1.5625 -0.10417,0.507812 -0.15625,0.970052 -0.15625,1.386719 0,0.624999 0.0846,1.289062 0.25391,1.992187 0.16926,0.703125 0.42317,1.354166 0.76172,1.953125 0.33854,0.585937 0.76823,1.074219 1.28906,1.464844 0.53385,0.377604 1.15885,0.566406 1.875,0.566406 0.46875,0 0.95703,-0.07813 1.46484,-0.234375 0.52084,-0.15625 1.03516,-0.351562 1.54297,-0.585937 0.52083,-0.247396 1.03516,-0.527344 1.54297,-0.839844 0.50781,-0.3125 0.97656,-0.61849 1.40625,-0.917969 0.0551,-0.03892 0.0947,-0.07106 0.14844,-0.109375"
			  id="path4393" class="dfGnBPMn_4"></path>
		<path style="font-style:normal;font-variant:normal;font-weight:normal;font-stretch:normal;font-size:medium;line-height:125%;font-family:Pacifico;-inkscape-font-specification:Pacifico;letter-spacing:0px;word-spacing:0px;fill:none;fill-opacity:1;stroke:#000000;stroke-width:1;stroke-linecap:round;stroke-linejoin:miter;stroke-miterlimit:4;stroke-dasharray:none;stroke-opacity:1"
			  d="m 138.68075,55.746137 c 0.0217,0.127417 0.0375,0.260927 0.0664,0.382812 0.13022,0.481771 0.33855,0.891927 0.625,1.230469 0.28646,0.338542 0.65754,0.605469 1.11328,0.800781 0.46875,0.182292 1.04167,0.273438 1.71875,0.273438 0.75521,0 1.54947,-0.136718 2.38282,-0.410156 0.84635,-0.273438 1.67317,-0.611979 2.48047,-1.015625 0.80728,-0.416667 1.55598,-0.865886 2.24609,-1.347657 0.21876,-0.15394 0.40549,-0.299627 0.60156,-0.447265"
			  id="path4391" class="dfGnBPMn_5"></path>
		<path style="font-style:normal;font-variant:normal;font-weight:normal;font-stretch:normal;font-size:medium;line-height:125%;font-family:Pacifico;-inkscape-font-specification:Pacifico;letter-spacing:0px;word-spacing:0px;fill:none;fill-opacity:1;stroke:#000000;stroke-width:1;stroke-linecap:round;stroke-linejoin:miter;stroke-miterlimit:4;stroke-dasharray:none;stroke-opacity:1"
			  d="m 149.91512,55.212934 c 0.0732,0.493724 0.17106,0.968259 0.31641,1.404297 0.20833,0.585938 0.52083,1.074219 0.9375,1.464844 0.41667,0.377603 1.0026,0.566406 1.75781,0.566406 0.45573,0 0.93751,-0.208334 1.44531,-0.625 0.52084,-0.429688 1.03516,-0.976563 1.54297,-1.640625 0.52083,-0.664062 1.02213,-1.40625 1.50391,-2.226563 0.48177,-0.820312 0.91146,-1.621094 1.28906,-2.402344 0.013,0.494793 0.1237,0.970053 0.33203,1.425782 0.22135,0.455729 0.52083,0.865885 0.89844,1.230468 0.39062,0.364584 0.85937,0.657553 1.40625,0.878907 0.55989,0.208333 1.1914,0.3125 1.89453,0.3125 0.83333,0 1.70573,-0.162761 2.61719,-0.488281 0.56129,-0.197638 1.10724,-0.449282 1.64453,-0.728516"
			  id="path4389" class="dfGnBPMn_6"></path>
		<path style="font-style:normal;font-variant:normal;font-weight:normal;font-stretch:normal;font-size:medium;line-height:125%;font-family:Pacifico;-inkscape-font-specification:Pacifico;letter-spacing:0px;word-spacing:0px;fill:none;fill-opacity:1;stroke:#000000;stroke-width:1;stroke-linecap:round;stroke-linejoin:miter;stroke-miterlimit:4;stroke-dasharray:none;stroke-opacity:1"
			  d="m 167.50106,54.384809 c 0.27033,0.580113 0.59692,1.119649 0.99219,1.607422 0.61197,0.742188 1.3737,1.334635 2.28515,1.777344 0.92447,0.442708 1.9987,0.664062 3.22265,0.664062 0.78125,0 1.54948,-0.08463 2.30469,-0.253906 0.76823,-0.182292 1.5039,-0.416667 2.20703,-0.703125 0.71614,-0.299479 1.39323,-0.638021 2.03125,-1.015625 0.65104,-0.377604 1.2565,-0.761719 1.8164,-1.152344 1.28906,-0.911459 2.50651,-1.959635 3.65235,-3.144531 l -2.51953,-2.617188 c -0.50782,0.494792 -1.12631,1.022136 -1.85547,1.582031 -0.72917,0.546876 -1.5039,1.054688 -2.32422,1.523438 -0.82032,0.46875 -1.66667,0.859375 -2.53907,1.171875 -0.85937,0.3125 -1.67968,0.46875 -2.46093,0.46875 -0.2474,0 -0.48177,-0.02604 -0.70312,-0.07813 -0.20833,-0.05208 -0.41015,-0.143229 -0.60547,-0.273438 -0.19531,-0.130208 -0.39063,-0.312499 -0.58593,-0.546874 -0.1823,-0.234375 -0.3711,-0.527344 -0.56641,-0.878907 1.13281,-0.3125 2.18099,-0.748698 3.14453,-1.308593 0.97657,-0.559896 1.81641,-1.197918 2.51953,-1.914063 0.70312,-0.716146 1.25,-1.477864 1.64063,-2.285156 0.40364,-0.807292 0.60547,-1.614583 0.60547,-2.421875 0,-0.742188 -0.13021,-1.412761 -0.39063,-2.011719 -0.26041,-0.598959 -0.625,-1.106771 -1.09375,-1.523437 -0.45573,-0.429688 -0.99609,-0.761719 -1.62109,-0.996094 -0.625,-0.234375 -1.30209,-0.351563 -2.03125,-0.351563 -0.89844,0 -1.71875,0.162761 -2.46094,0.488281 -0.72917,0.3125 -1.39323,0.742188 -1.99219,1.289063 -0.58594,0.533854 -1.10026,1.158854 -1.54297,1.875 -0.44271,0.703125 -0.8138,1.445313 -1.11328,2.226563 -0.28646,0.78125 -0.5013,1.582031 -0.64453,2.402343 -0.14323,0.807292 -0.21484,1.575521 -0.21484,2.304688 0,0.02103 0.002,0.0415 0.002,0.0625"
			  id="path4387" class="dfGnBPMn_7"></path>
		<path style="font-style:normal;font-variant:normal;font-weight:normal;font-stretch:normal;font-size:medium;line-height:125%;font-family:Pacifico;-inkscape-font-specification:Pacifico;letter-spacing:0px;word-spacing:0px;fill:none;fill-opacity:1;stroke:#000000;stroke-width:1;stroke-linecap:round;stroke-linejoin:miter;stroke-miterlimit:4;stroke-dasharray:none;stroke-opacity:1"
			  d="m 166.65931,50.351601 c -0.38988,0.210537 -0.79706,0.407886 -1.23242,0.582031 -0.50781,0.195312 -0.95704,0.292969 -1.34766,0.292969 -0.53386,0 -0.97005,-0.07162 -1.30859,-0.214844 -0.33854,-0.143229 -0.60547,-0.332031 -0.80078,-0.566406 -0.19532,-0.247396 -0.33203,-0.520833 -0.41016,-0.820313 -0.0781,-0.299479 -0.11719,-0.605468 -0.11719,-0.917968 0,-0.29948 0.0195,-0.585938 0.0586,-0.859376 0.0521,-0.286458 0.11071,-0.540364 0.17578,-0.761718 0.0651,-0.247396 0.14323,-0.488281 0.23437,-0.722656 0.28646,-0.638021 0.54687,-1.191407 0.78125,-1.660157 0.2474,-0.46875 0.45573,-0.891927 0.625,-1.269531 0.18229,-0.390625 0.31901,-0.748698 0.41016,-1.074219 0.10417,-0.32552 0.15625,-0.670573 0.15625,-1.035156 0,-0.481771 -0.22787,-0.872396 -0.68359,-1.171875 -0.45573,-0.3125 -1.0612,-0.46875 -1.81641,-0.46875 -0.28645,0 -0.55989,0.03906 -0.82031,0.117188 -0.2474,0.07813 -0.47526,0.182291 -0.6836,0.3125 -0.20833,0.117187 -0.3776,0.260416 -0.50781,0.429687 -0.1302,0.169271 -0.21484,0.345052 -0.2539,0.527344 l -5.13672,12.246093 -0.27344,0.01953 0.76172,-12.363282 c -0.013,-0.338541 -0.14323,-0.63802 -0.39063,-0.898437 -0.23437,-0.260417 -0.57291,-0.390625 -1.01562,-0.390625 -0.0651,0 -0.13025,0.0065 -0.19531,0.01953 -0.0521,0 -0.11072,0.0065 -0.17578,0.01953 l -2.34375,0.371094 c -0.41667,0.0651 -0.6901,0.47526 -0.82032,1.230469 -0.11718,0.742187 -0.17578,1.783854 -0.17578,3.125 0,0.520833 0.007,1.028646 0.0195,1.523437 0.013,0.494793 0.0325,1.035157 0.0586,1.621094 0.0391,0.585938 0.0781,1.24349 0.11718,1.972656 0.0303,0.554726 0.0596,1.255821 0.0899,1.966797 -0.0193,0.017 -0.0314,0.02775 -0.0508,0.04492"
			  id="path4385" class="dfGnBPMn_8"></path>
		<path style="font-style:normal;font-variant:normal;font-weight:normal;font-stretch:normal;font-size:medium;line-height:125%;font-family:Pacifico;-inkscape-font-specification:Pacifico;letter-spacing:0px;word-spacing:0px;fill:none;fill-opacity:1;stroke:#000000;stroke-width:1;stroke-linecap:round;stroke-linejoin:miter;stroke-miterlimit:4;stroke-dasharray:none;stroke-opacity:1"
			  d="m 149.58705,51.578157 c -0.5599,0.494792 -1.13282,0.976563 -1.71875,1.445313 -0.58594,0.455729 -1.16537,0.846354 -1.73828,1.171875 -0.57292,0.325521 -1.09376,0.488281 -1.5625,0.488281 -0.40365,0 -0.67058,-0.169271 -0.80079,-0.507812 -0.13021,-0.351563 -0.19531,-0.820313 -0.19531,-1.40625 0,-0.598958 0.0651,-1.269531 0.19531,-2.011719 0.13021,-0.755208 0.29297,-1.523438 0.48829,-2.304688 0.19531,-0.79427 0.40364,-1.582031 0.625,-2.363281 0.22135,-0.794271 0.42968,-1.529948 0.625,-2.207031 0.19531,-0.690104 0.35807,-1.302084 0.48828,-1.835938 0.1302,-0.546875 0.19531,-0.963542 0.19531,-1.25 0,-0.338542 -0.0977,-0.605469 -0.29297,-0.800781 -0.19531,-0.208333 -0.56641,-0.3125 -1.11328,-0.3125 -0.29948,0 -0.63803,0.03906 -1.01563,0.117188 -0.36458,0.0651 -0.72265,0.175781 -1.07421,0.332031 -0.33855,0.143229 -0.64454,0.338541 -0.91797,0.585937 -0.27344,0.234375 -0.45573,0.520833 -0.54688,0.859375 -0.23437,0.976563 -0.50781,2.044271 -0.82031,3.203125 -0.29948,1.158854 -0.58594,2.324219 -0.85938,3.496094 -0.17559,0.744187 -0.30779,1.452583 -0.45117,2.169922"
			  id="path4383" class="dfGnBPMn_9"></path>
		<path style="font-style:normal;font-variant:normal;font-weight:normal;font-stretch:normal;font-size:medium;line-height:125%;font-family:Pacifico;-inkscape-font-specification:Pacifico;letter-spacing:0px;word-spacing:0px;fill:none;fill-opacity:1;stroke:#000000;stroke-width:1;stroke-linecap:round;stroke-linejoin:miter;stroke-miterlimit:4;stroke-dasharray:none;stroke-opacity:1"
			  d="m 139.09681,50.447298 c -0.30331,0.319478 -0.60787,0.630286 -0.91601,0.916016 -0.29948,0.286458 -0.61849,0.566406 -0.95703,0.839843 -0.33855,0.260417 -0.6836,0.494792 -1.03516,0.703125 -0.35156,0.208334 -0.70312,0.377605 -1.05469,0.507813 -0.35156,0.130208 -0.68359,0.195312 -0.99609,0.195312 -0.24739,0 -0.44922,-0.15625 -0.60547,-0.46875 -0.15625,-0.3125 -0.23438,-0.729166 -0.23438,-1.25 0,-0.95052 0.11719,-1.861979 0.35157,-2.734375 0.24739,-0.872396 0.51432,-1.72526 0.80078,-2.558594 0.29948,-0.846353 0.57292,-1.686197 0.82031,-2.519531 0.2474,-0.846354 0.37109,-1.712239 0.37109,-2.597656 0,-0.442709 -0.0586,-0.800781 -0.17578,-1.074219 -0.11718,-0.286458 -0.26693,-0.507812 -0.44922,-0.664062 -0.16927,-0.156247 -0.35156,-0.260414 -0.54687,-0.3125 -0.19531,-0.06511 -0.3711,-0.09766 -0.52734,-0.09766 -0.625,0 -1.29557,0.234374 -2.01172,0.703124 -0.70313,0.45573 -1.41276,1.035157 -2.12891,1.738282 -0.71615,0.690104 -1.40625,1.438802 -2.07031,2.246094 -0.66406,0.807292 -1.26302,1.5625 -1.79688,2.265624 l -0.39062,-0.273437 c 0.44271,-0.820313 0.95052,-1.770833 1.52344,-2.851563 0.58593,-1.080729 1.17838,-2.226562 1.77734,-3.4375 0.59896,-1.223957 1.1849,-2.480468 1.75781,-3.769531 0.57292,-1.302083 1.08073,-2.584635 1.52344,-3.847656 0.45573,-1.263021 0.82031,-2.480469 1.09375,-3.652344 0.27344,-1.171875 0.41016,-2.239583 0.41016,-3.203125 0,-0.651042 -0.0521,-1.236979 -0.15625,-1.757812 -0.10417,-0.533854 -0.29297,-0.989584 -0.56641,-1.367188 -0.26041,-0.377604 -0.61849,-0.670573 -1.07422,-0.878906 -0.44271,-0.208333 -1.01562,-0.3125 -1.71875,-0.3125 l 0,1.4e-5 c -1.35417,0 -2.55208,0.377604 -3.59375,1.132812 -1.04167,0.755209 -1.95313,1.777345 -2.73437,3.066407 -0.76824,1.276042 -1.42579,2.760417 -1.97266,4.453125 -0.53385,1.679688 -0.98307,3.450521 -1.34766,5.3125 -0.35156,1.848958 -0.62499,3.723958 -0.82031,5.625 -0.19531,1.901042 -0.34505,3.710937 -0.44922,5.429687 -0.0862,1.422789 -0.1294,2.678917 -0.16211,3.896485"
			  id="path4381" class="dfGnBPMn_10"></path>
		<path style="font-style:normal;font-variant:normal;font-weight:normal;font-stretch:normal;font-size:medium;line-height:125%;font-family:Pacifico;-inkscape-font-specification:Pacifico;letter-spacing:0px;word-spacing:0px;fill:none;fill-opacity:1;stroke:#000000;stroke-width:1;stroke-linecap:round;stroke-linejoin:miter;stroke-miterlimit:4;stroke-dasharray:none;stroke-opacity:1"
			  d="m 119.03431,49.849652 c -0.25738,0.28395 -0.52198,0.571159 -0.81445,0.86914 -0.69011,0.703125 -1.41927,1.347656 -2.1875,1.933594 -0.75521,0.585937 -1.51042,1.074219 -2.26562,1.464844 -0.75522,0.377604 -1.44532,0.566406 -2.07032,0.566406 -0.63802,0 -1.15885,-0.136718 -1.5625,-0.410156 -0.40364,-0.286458 -0.72265,-0.638021 -0.95703,-1.054688 -0.23437,-0.429687 -0.39713,-0.898437 -0.48828,-1.40625 -0.0781,-0.507812 -0.11719,-0.996094 -0.11719,-1.464844 0,-0.3125 0.013,-0.696614 0.0391,-1.152343 0.026,-0.46875 0.0846,-0.957032 0.17578,-1.464844 0.0911,-0.507813 0.21484,-1.015625 0.37109,-1.523437 0.15625,-0.520834 0.36459,-0.983073 0.625,-1.386719 0.27344,-0.416667 0.59896,-0.748699 0.97656,-0.996094 0.37761,-0.260417 0.83334,-0.390625 1.36719,-0.390625 0.22133,0 0.36456,0.104167 0.42969,0.3125 0.0651,0.208333 0.0977,0.46875 0.0977,0.78125 0,0.208333 -0.013,0.442708 -0.0391,0.703125 -0.013,0.260417 -0.0195,0.507813 -0.0195,0.742187 0,0.572917 0.0911,1.022136 0.27344,1.347657 0.19531,0.325521 0.59896,0.488281 1.21094,0.488281 0.40364,0 0.76822,-0.104167 1.09375,-0.3125 0.32552,-0.208333 0.59896,-0.48177 0.82031,-0.820312 0.23437,-0.351563 0.41016,-0.742188 0.52734,-1.171876 0.11719,-0.429687 0.17578,-0.865885 0.17578,-1.308593 0,-0.638021 -0.13021,-1.230469 -0.39062,-1.777344 -0.2474,-0.559896 -0.59896,-1.041667 -1.05469,-1.445313 -0.44271,-0.403646 -0.98307,-0.716145 -1.62109,-0.9375 -0.625,-0.234374 -1.3086,-0.351562 -2.05078,-0.351562 -0.8724,0 -1.67318,0.162761 -2.40235,0.488281 -0.72916,0.3125 -1.39323,0.742188 -1.99219,1.289063 -0.58593,0.533854 -1.10676,1.158854 -1.5625,1.875 -0.4427,0.716146 -0.82031,1.471354 -1.13281,2.265625 -0.29948,0.78125 -0.52734,1.582031 -0.68359,2.402343 -0.004,0.02065 -0.006,0.03994 -0.01,0.06055"
			  id="path4357" class="dfGnBPMn_11"></path>
		<path style="font-style:normal;font-variant:normal;font-weight:normal;font-stretch:normal;font-size:medium;line-height:125%;font-family:Pacifico;-inkscape-font-specification:Pacifico;letter-spacing:0px;word-spacing:0px;fill:none;fill-opacity:1;stroke:#000000;stroke-width:1;stroke-linecap:round;stroke-linejoin:miter;stroke-miterlimit:4;stroke-dasharray:none;stroke-opacity:1"
			  d="m 123.25892,44.566448 c 0.11719,-1.484374 0.28646,-3.001301 0.50782,-4.550781 0.0911,-0.664062 0.1953,-1.360677 0.3125,-2.089843 0.1302,-0.742188 0.26693,-1.490886 0.41015,-2.246094 0.15626,-0.768229 0.32553,-1.536458 0.50781,-2.304688 0.19532,-0.768229 0.40365,-1.510416 0.625,-2.226562 0.89844,-2.109375 1.67969,-3.717448 2.34375,-4.824219 0.66407,-1.106771 1.16537,-1.660156 1.50391,-1.660156 0.26042,0 0.39062,0.494791 0.39062,1.484375 0,0.651042 -0.17577,1.660156 -0.52734,3.027343 -0.33854,1.367188 -0.89193,3.046875 -1.66015,5.039063 -0.23438,0.585937 -0.53386,1.302084 -0.89844,2.148438 -0.35157,0.833333 -0.72917,1.72526 -1.13281,2.675781 -0.40365,0.9375 -0.81381,1.88802 -1.23047,2.851562 -0.41667,0.963542 -0.80078,1.855469 -1.15235,2.675781"
			  id="path4355" class="dfGnBPMn_12"></path>
		<path style="font-style:normal;font-variant:normal;font-weight:normal;font-stretch:normal;font-size:medium;line-height:125%;font-family:Pacifico;-inkscape-font-specification:Pacifico;letter-spacing:0px;word-spacing:0px;fill:none;fill-opacity:1;stroke:#000000;stroke-width:1;stroke-linecap:round;stroke-linejoin:miter;stroke-miterlimit:4;stroke-dasharray:none;stroke-opacity:1"
			  d="m 80.895642,28.804734 -4.0625,15.078125 c -0.130208,0.572916 -0.345052,1.25651 -0.644531,2.050781 -0.29948,0.78125 -0.683594,1.595052 -1.152344,2.441406 -0.455729,0.846354 -0.996094,1.686198 -1.621094,2.519532 -0.611979,0.820312 -1.289063,1.562499 -2.03125,2.226562 -0.742188,0.651041 -1.54948,1.178385 -2.421875,1.582031 -0.859375,0.403646 -1.770834,0.605469 -2.734375,0.605469 -1.549479,0 -2.695313,-0.501302 -3.4375,-1.503906 -0.729167,-1.015625 -1.09375,-2.441407 -1.09375,-4.277344 0,-0.924479 0.117188,-1.933594 0.351563,-3.027344 0.234375,-1.10677 0.572916,-2.239583 1.015625,-3.398437 0.442708,-1.171875 0.970052,-2.34375 1.582031,-3.515625 0.611979,-1.171875 1.295572,-2.298177 2.050781,-3.378906 0.768229,-1.09375 1.588541,-2.109376 2.460938,-3.046876 0.885416,-0.95052 1.809895,-1.770833 2.773437,-2.460937 0.976562,-0.703125 1.979166,-1.25651 3.007813,-1.660156 1.028645,-0.403646 2.070312,-0.605469 3.125,-0.605473 0.455729,0 0.924479,0.03255 1.40625,0.09766 0.494792,0.05208 0.970052,0.14323 1.425781,0.273438"
			  id="path4353" class="dfGnBPMn_13"></path>
		<path style="font-style:normal;font-variant:normal;font-weight:normal;font-stretch:normal;font-size:medium;line-height:125%;font-family:Pacifico;-inkscape-font-specification:Pacifico;letter-spacing:0px;word-spacing:0px;fill:none;fill-opacity:1;stroke:#000000;stroke-width:1;stroke-linecap:round;stroke-linejoin:miter;stroke-miterlimit:4;stroke-dasharray:none;stroke-opacity:1"
			  d="m 145.70033,37.164105 c 0.66406,0 1.23046,-0.09766 1.69922,-0.292969 0.48176,-0.208333 0.8789,-0.47526 1.1914,-0.800781 0.3125,-0.325521 0.54036,-0.696615 0.6836,-1.113281 0.14322,-0.416667 0.21484,-0.846355 0.21484,-1.289063 0,-0.481771 -0.0911,-0.898438 -0.27344,-1.25 -0.16926,-0.351563 -0.40364,-0.63151 -0.70312,-0.839844 -0.29948,-0.221354 -0.65104,-0.384114 -1.05469,-0.488281 -0.40365,-0.104167 -0.83333,-0.15625 -1.28906,-0.15625 -0.72917,0 -1.34115,0.117188 -1.83594,0.351562 -0.48177,0.221354 -0.87239,0.501302 -1.17187,0.839844 -0.28646,0.325521 -0.4948,0.677084 -0.625,1.054688 -0.13022,0.377604 -0.19532,0.716146 -0.19532,1.015625 0,0.898438 0.27344,1.621094 0.82032,2.167969 0.54687,0.533853 1.39323,0.800781 2.53906,0.800781"
			  id="path4351" class="dfGnBPMn_14"></path>
		<path style="font-style:normal;font-variant:normal;font-weight:normal;font-stretch:normal;font-size:medium;line-height:125%;font-family:Pacifico;-inkscape-font-specification:Pacifico;letter-spacing:0px;word-spacing:0px;fill:none;fill-opacity:1;stroke:#000000;stroke-width:1;stroke-linecap:round;stroke-linejoin:miter;stroke-miterlimit:4;stroke-dasharray:none;stroke-opacity:1"
			  d="m 175.0558,43.433636 c 0.31249,0 0.57291,0.188802 0.78124,0.566406 0.22136,0.377604 0.33204,0.859375 0.33204,1.445313 0,0.416666 -0.16277,0.846354 -0.48828,1.289062 -0.32553,0.442708 -0.72917,0.852864 -1.21094,1.230469 -0.46875,0.377604 -0.98307,0.690104 -1.54297,0.9375 -0.54687,0.234375 -1.05469,0.351562 -1.52344,0.351562 0,-0.286458 0.013,-0.63151 0.0391,-1.035156 0.026,-0.403646 0.0781,-0.820312 0.15625,-1.25 0.0911,-0.429687 0.21485,-0.852864 0.3711,-1.269531 0.16927,-0.429688 0.38412,-0.807292 0.64453,-1.132813 0.27344,-0.338541 0.60547,-0.611979 0.99609,-0.820312 0.40364,-0.208333 0.88541,-0.3125 1.44532,-0.3125 z"
			  id="path4349" class="dfGnBPMn_15"></path>
		<path style="font-style:normal;font-variant:normal;font-weight:normal;font-stretch:normal;font-size:medium;line-height:125%;font-family:Pacifico;-inkscape-font-specification:Pacifico;letter-spacing:0px;word-spacing:0px;fill:none;fill-opacity:1;stroke:#000000;stroke-width:1;stroke-linecap:round;stroke-linejoin:miter;stroke-miterlimit:4;stroke-dasharray:none;stroke-opacity:1"
			  d="m 159.74142,94.787195 c -0.24794,0.20593 -0.49854,0.411371 -0.7793,0.626953 -0.72916,0.546875 -1.5039,1.054687 -2.32421,1.523437 -0.82031,0.46875 -1.66667,0.859375 -2.53906,1.171875 -0.85938,0.3125 -1.67969,0.46875 -2.46094,0.46875 -0.24739,0 -0.48177,-0.02604 -0.70313,-0.07813 -0.20833,-0.05208 -0.41016,-0.143229 -0.60547,-0.273437 -0.19531,-0.130208 -0.39062,-0.3125 -0.58593,-0.546875 -0.1823,-0.234375 -0.3711,-0.527344 -0.56641,-0.878906 1.13281,-0.312501 2.18099,-0.748698 3.14453,-1.308594 0.97657,-0.559896 1.81641,-1.197917 2.51953,-1.914063 0.70313,-0.716146 1.25,-1.477864 1.64063,-2.285156 0.40364,-0.807291 0.60546,-1.614583 0.60546,-2.421875 0,-0.742187 -0.1302,-1.412761 -0.39062,-2.011719 -0.26041,-0.598958 -0.625,-1.106771 -1.09375,-1.523437 -0.45572,-0.429688 -0.99609,-0.761719 -1.62109,-0.996094 -0.625,-0.234375 -1.30208,-0.351562 -2.03125,-0.351562 -0.89844,-10e-7 -1.71875,0.16276 -2.46094,0.488281 -0.72917,0.3125 -1.39323,0.742187 -1.99219,1.289062 -0.58593,0.533854 -1.10026,1.158854 -1.54297,1.875 -0.44271,0.703125 -0.8138,1.445313 -1.11328,2.226563 -0.28645,0.78125 -0.50129,1.582031 -0.64453,2.402344 -0.14322,0.807291 -0.21484,1.57552 -0.21484,2.304687 0,0.166982 0.0104,0.331288 0.0176,0.496094"
			  id="path4425" class="dfGnBPMn_16"></path>
		<path style="font-style:normal;font-variant:normal;font-weight:normal;font-stretch:normal;font-size:medium;line-height:125%;font-family:Pacifico;-inkscape-font-specification:Pacifico;letter-spacing:0px;word-spacing:0px;fill:none;fill-opacity:1;stroke:#000000;stroke-width:1;stroke-linecap:round;stroke-linejoin:miter;stroke-miterlimit:4;stroke-dasharray:none;stroke-opacity:1"
			  d="m 143.99926,95.070393 c -0.14432,0.115503 -0.27352,0.225334 -0.42774,0.34375 -0.72916,0.546875 -1.5039,1.054687 -2.32422,1.523437 -0.8203,0.46875 -1.66666,0.859375 -2.53906,1.171875 -0.85937,0.3125 -1.67968,0.46875 -2.46094,0.46875 -0.24739,0 -0.48177,-0.02604 -0.70312,-0.07813 -0.20833,-0.05208 -0.41016,-0.143229 -0.60547,-0.273437 -0.19531,-0.130208 -0.39062,-0.3125 -0.58594,-0.546875 -0.18228,-0.234375 -0.37109,-0.527344 -0.5664,-0.878906 1.13281,-0.312501 2.18099,-0.748698 3.14453,-1.308594 0.97656,-0.559896 1.8164,-1.197917 2.51953,-1.914063 0.70313,-0.716146 1.25,-1.477864 1.64062,-2.285156 0.40365,-0.807291 0.60547,-1.614583 0.60547,-2.421875 0,-0.742187 -0.13021,-1.412761 -0.39062,-2.011719 -0.26042,-0.598958 -0.62501,-1.106771 -1.09375,-1.523437 -0.45574,-0.429688 -0.9961,-0.761719 -1.6211,-0.996094 -0.625,-0.234375 -1.30208,-0.351562 -2.03125,-0.351562 -0.89843,-10e-7 -1.71875,0.16276 -2.46093,0.488281 -0.72917,0.3125 -1.39323,0.742187 -1.99219,1.289062 -0.58594,0.533854 -1.10026,1.158854 -1.54297,1.875 -0.44271,0.703125 -0.8138,1.445313 -1.11328,2.226563 -0.28646,0.78125 -0.50131,1.582031 -0.64453,2.402344 -0.14324,0.807291 -0.21485,1.57552 -0.21485,2.304687 0,0.260333 0.01,0.518393 0.0274,0.773437"
			  id="path4423" class="dfGnBPMn_17"></path>
		<path style="font-style:normal;font-variant:normal;font-weight:normal;font-stretch:normal;font-size:medium;line-height:125%;font-family:Pacifico;-inkscape-font-specification:Pacifico;letter-spacing:0px;word-spacing:0px;fill:none;fill-opacity:1;stroke:#000000;stroke-width:1;stroke-linecap:round;stroke-linejoin:miter;stroke-miterlimit:4;stroke-dasharray:none;stroke-opacity:1"
			  d="m 128.61845,95.347731 c -0.10066,0.09746 -0.1996,0.20696 -0.30078,0.300782 -0.29948,0.286458 -0.61849,0.566406 -0.95703,0.839844 -0.33855,0.260416 -0.6836,0.494791 -1.03516,0.703124 -0.35156,0.208334 -0.70312,0.377605 -1.05469,0.507813 -0.35156,0.130209 -0.68359,0.195313 -0.99609,0.195313 -0.2474,0 -0.44922,-0.15625 -0.60547,-0.46875 -0.15625,-0.3125 -0.23438,-0.729167 -0.23438,-1.25 0,-0.950521 0.11719,-1.86198 0.35157,-2.734376 0.24739,-0.872396 0.51432,-1.72526 0.80078,-2.558593 0.29948,-0.846354 0.57292,-1.686198 0.82031,-2.519531 0.24739,-0.846355 0.37109,-1.71224 0.37109,-2.597657 0,-0.442708 -0.0586,-0.800781 -0.17578,-1.074219 -0.11718,-0.286458 -0.26692,-0.507812 -0.44922,-0.664062 -0.16926,-0.156247 -0.35156,-0.260413 -0.54687,-0.3125 -0.19531,-0.06511 -0.3711,-0.09766 -0.52734,-0.09766 -0.625,0 -1.29558,0.234375 -2.01172,0.703125 -0.70313,0.455729 -1.41276,1.035156 -2.12891,1.738281 -0.71615,0.690105 -1.40625,1.438802 -2.07031,2.246094 -0.66407,0.807292 -1.26302,1.5625 -1.79688,2.265625 l -0.39062,-0.273438 c 0.4427,-0.820312 0.95052,-1.770833 1.52344,-2.851562 0.58593,-1.08073 1.17838,-2.226563 1.77734,-3.4375 0.59896,-1.223958 1.1849,-2.480469 1.75781,-3.769531 0.57292,-1.302084 1.08073,-2.584636 1.52344,-3.847657 0.45573,-1.263021 0.82031,-2.480469 1.09375,-3.652343 0.27344,-1.171876 0.41016,-2.239584 0.41016,-3.203126 0,-0.651041 -0.0521,-1.236979 -0.15625,-1.757812 -0.10417,-0.533854 -0.29297,-0.989584 -0.56641,-1.367188 -0.26042,-0.377604 -0.61849,-0.670572 -1.07422,-0.878906 -0.44271,-0.208333 -1.01562,-0.3125 -1.71875,-0.3125 l -1.5e-4,-2.9e-5 c -1.35417,0 -2.55208,0.377605 -3.59375,1.132813 -1.04167,0.755208 -1.95313,1.777344 -2.73437,3.066406 -0.76824,1.276042 -1.42579,2.760417 -1.97266,4.453125 -0.53385,1.679688 -0.98307,3.450521 -1.34766,5.3125 -0.35156,1.848959 -0.625,3.723959 -0.82031,5.625 -0.19531,1.901042 -0.34505,3.710938 -0.44922,5.429688 -0.10414,1.718749 -0.16924,3.28776 -0.19531,4.707031 -10e-4,0.145446 -7.5e-4,0.21378 -0.002,0.353515"
			  id="path4421" class="dfGnBPMn_18"></path>
		<path style="font-style:normal;font-variant:normal;font-weight:normal;font-stretch:normal;font-size:medium;line-height:125%;font-family:Pacifico;-inkscape-font-specification:Pacifico;letter-spacing:0px;word-spacing:0px;fill:none;fill-opacity:1;stroke:#000000;stroke-width:1;stroke-linecap:round;stroke-linejoin:miter;stroke-miterlimit:4;stroke-dasharray:none;stroke-opacity:1"
			  d="m 109.13583,95.29887 c -0.34111,0.281509 -0.69749,0.512385 -1.07227,0.681641 -0.39063,0.169271 -0.77474,0.253906 -1.15234,0.253906 -0.37761,0 -0.73568,-0.05208 -1.07422,-0.15625 -0.32552,-0.104166 -0.61198,-0.273437 -0.85938,-0.507812 -0.23437,-0.234375 -0.42318,-0.527344 -0.5664,-0.878907 -0.14324,-0.364583 -0.21485,-0.800781 -0.21485,-1.308593 0,-0.208334 0.0781,-0.696615 0.23438,-1.464844 0.16927,-0.768229 0.37109,-1.712239 0.60547,-2.832031 0.24739,-1.119792 0.50781,-2.376302 0.78125,-3.769532 0.28645,-1.393229 0.54687,-2.825521 0.78125,-4.296874 0.24739,-1.471354 0.44921,-2.936198 0.60547,-4.394532 0.16926,-1.471354 0.2539,-2.838542 0.2539,-4.101562 0,-0.45573 -0.0521,-0.826823 -0.15625,-1.113282 -0.10416,-0.299479 -0.2539,-0.533854 -0.44922,-0.703124 -0.19531,-0.18229 -0.42969,-0.305988 -0.70312,-0.371094 -0.26042,-0.07813 -0.55339,-0.117188 -0.87891,-0.117188 -0.41666,0 -0.82682,0.03906 -1.23047,0.117188 -0.39062,0.0651 -0.74218,0.208333 -1.05468,0.429687 -0.3125,0.221354 -0.57292,0.533854 -0.78125,0.9375 -0.19532,0.403646 -0.3125,0.9375 -0.35157,1.601563 -0.0391,0.63802 -0.11067,1.523437 -0.21484,2.65625 -0.0911,1.119792 -0.22135,2.389323 -0.39063,3.808594 -0.16926,1.406249 -0.38411,2.903646 -0.64453,4.492187 -0.24739,1.588542 -0.54687,3.164063 -0.898435,4.726563 -0.338541,1.5625 -0.735676,3.059896 -1.191406,4.492187 -0.442708,1.432292 -0.950521,2.695313 -1.523437,3.789063 -0.559896,1.080729 -1.184896,1.946614 -1.875,2.597656 -0.677084,0.65104 -1.432292,0.97656 -2.265625,0.97656 -0.481771,0 -0.885417,-0.17578 -1.210938,-0.52734 -0.32552,-0.351565 -0.592448,-0.859376 -0.800781,-1.523439 -0.195313,-0.664062 -0.338542,-1.464844 -0.429687,-2.402344 -0.07813,-0.950521 -0.117188,-2.011719 -0.117188,-3.183593 0,-1.145834 0.05208,-2.402344 0.15625,-3.769532 0.104167,-1.367188 0.234375,-2.747396 0.390625,-4.140625 0.169271,-1.40625 0.345052,-2.773437 0.527344,-4.101562 0.195312,-1.328125 0.371093,-2.513021 0.527343,-3.554688 0.169271,-1.054688 0.30599,-1.914063 0.410157,-2.578125 0.104166,-0.677083 0.15625,-1.061197 0.15625,-1.152344 0,-0.273437 -0.03906,-0.520832 -0.117188,-0.742187 -0.07813,-0.221354 -0.214844,-0.410156 -0.410156,-0.566406 -0.182292,-0.15625 -0.436198,-0.279948 -0.761719,-0.371094 -0.3125,-0.09115 -0.716145,-0.136719 -1.210937,-0.136719 -0.520834,0 -0.983074,0.05859 -1.386719,0.175782 -0.390625,0.117187 -0.735677,0.31901 -1.035156,0.605468 -0.299479,0.286458 -0.559896,0.670573 -0.78125,1.152344 -0.208334,0.481771 -0.390625,1.08073 -0.546875,1.796875 -0.846354,4.440105 -1.816407,8.404948 -2.910157,11.894531 -0.312499,0.989584 -0.644531,1.972657 -0.996093,2.949219 -0.351562,0.963542 -0.729167,1.888021 -1.132813,2.773437 -0.390625,0.872396 -0.800781,1.686199 -1.230468,2.441407 -0.429688,0.755208 -0.878907,1.40625 -1.347657,1.953125 -0.46875,0.546875 -0.957031,0.976562 -1.464843,1.289062 -0.494792,0.3125 -1.009115,0.46875 -1.542969,0.46875 -0.533854,0 -0.996094,-0.16927 -1.386719,-0.507812 -0.390625,-0.338542 -0.716146,-0.800781 -0.976562,-1.386719 -0.260417,-0.598958 -0.45573,-1.295573 -0.585938,-2.089844 -0.117188,-0.807292 -0.175781,-1.673177 -0.175781,-2.597656 0,-1.132812 0.104166,-2.35677 0.3125,-3.671875 0.221354,-1.328125 0.494792,-2.675781 0.820312,-4.042969 0.325521,-1.367188 0.677084,-2.714844 1.054688,-4.042969 0.377604,-1.328125 0.729167,-2.558594 1.054687,-3.691406 0.325521,-1.132812 0.592448,-2.128906 0.800782,-2.988281 0.221353,-0.872395 0.332031,-1.529948 0.332031,-1.972656 0,-0.390625 -0.04557,-0.696614 -0.136719,-0.917969 -0.07813,-0.234375 -0.201823,-0.410156 -0.371094,-0.527344 -0.15625,-0.130211 -0.351562,-0.214846 -0.585937,-0.253906 -0.234375,-0.03906 -0.494792,-0.05859 -0.78125,-0.05859 -0.351562,0 -0.703125,0.01953 -1.054688,0.05859 -0.338542,0.03906 -0.677083,0.16276 -1.015625,0.371094 -0.338542,0.195312 -0.670573,0.507812 -0.996094,0.9375 -0.32552,0.416666 -0.651041,1.002604 -0.976562,1.757812 -0.546875,1.354167 -1.035156,2.747396 -1.464844,4.179688 -0.429687,1.432292 -0.79427,2.877604 -1.09375,4.335937 -0.286458,1.458334 -0.507812,2.916667 -0.664062,4.375 -0.15625,1.445312 -0.234375,2.858073 -0.234375,4.238281 0,2.252605 0.175781,4.225261 0.527343,5.917969 0.364584,1.679688 0.839844,3.079423 1.425782,4.199223 0.598958,1.11978 1.289062,1.95963 2.070312,2.51953 0.78125,0.57291 1.601563,0.85937 2.460938,0.85937 1.497396,0 2.858072,-0.26041 4.082031,-0.78125 1.236979,-0.50781 2.330729,-1.36719 3.28125,-2.57812 0.963541,-1.21094 1.796875,-2.812503 2.5,-4.80469 0.716145,-2.005208 1.308594,-4.492188 1.777344,-7.460938 -0.03906,0.429688 -0.09114,0.917969 -0.15625,1.464844 -0.06511,0.546875 -0.09766,1.132812 -0.09766,1.757812 0,1.70573 0.123698,3.313803 0.371094,4.824219 0.247396,1.510417 0.638021,2.825521 1.171875,3.945313 0.546875,1.11979 1.25,2.00521 2.109375,2.65625 0.872396,0.65104 1.927084,0.97656 3.164063,0.97656 0.976562,0 1.920572,-0.1888 2.832031,-0.5664 0.924479,-0.36459 1.803385,-0.88542 2.636719,-1.5625 0.846354,-0.69011 1.640625,-1.51693 2.382812,-2.480473 0.755219,-0.976562 1.458339,-2.070312 2.109379,-3.28125 0.0781,0.625 0.21484,1.165365 0.41016,1.621094 0.1953,0.455729 0.43619,0.826823 0.72265,1.113281 0.29948,0.286458 0.63802,0.501305 1.01563,0.644528 0.3776,0.13022 0.78125,0.19532 1.21093,0.19532 0.89844,0 1.85547,-0.319012 2.8711,-0.957035 0.26783,-0.166122 0.53346,-0.348975 0.79687,-0.546875"
			  id="path4419" class="dfGnBPMn_19"></path>
		<path style="font-style:normal;font-variant:normal;font-weight:normal;font-stretch:normal;font-size:medium;line-height:125%;font-family:Pacifico;-inkscape-font-specification:Pacifico;letter-spacing:0px;word-spacing:0px;fill:none;fill-opacity:1;stroke:#000000;stroke-width:1;stroke-linecap:round;stroke-linejoin:miter;stroke-miterlimit:4;stroke-dasharray:none;stroke-opacity:1"
			  d="m 109.13387,98.77348 c 0.007,0.401852 0.0139,0.803964 0.043,1.191406 0.0391,0.520834 0.1237,0.989584 0.25391,1.406254 0.1302,0.40364 0.31901,0.72916 0.5664,0.97656 0.2474,0.24739 0.58594,0.37109 1.01563,0.37109 0.32552,0 0.59245,-0.0716 0.80078,-0.21484 0.20833,-0.14323 0.39713,-0.35156 0.56641,-0.625 0.18228,-0.28646 0.36458,-0.64453 0.54687,-1.07422 0.18229,-0.44271 0.41667,-0.957028 0.70313,-1.542969 0.57291,-1.184895 1.21093,-2.330729 1.91406,-3.4375 0.71615,-1.119791 1.40625,-2.122396 2.07031,-3.007813 0.66407,-0.898437 1.25651,-1.640624 1.77735,-2.226562 0.53385,-0.585937 0.91146,-0.950521 1.13281,-1.09375 l 0.41015,0.05859 c -0.0391,0.03906 -0.1237,0.182291 -0.2539,0.429687 -0.13021,0.247396 -0.28646,0.566406 -0.46875,0.957031 -0.16927,0.390625 -0.35807,0.833333 -0.56641,1.328126 -0.19531,0.494791 -0.37761,1.002604 -0.54687,1.523437 -0.15626,0.520833 -0.29297,1.041667 -0.41016,1.5625 -0.10417,0.507813 -0.15625,0.970052 -0.15625,1.386719 0,0.625 0.0846,1.289062 0.25391,1.992187 0.16926,0.703125 0.42317,1.354177 0.76172,1.953127 0.33854,0.58594 0.76823,1.07422 1.28906,1.46485 0.53385,0.3776 1.15885,0.5664 1.875,0.5664 0.46874,0 0.95703,-0.0781 1.46484,-0.23437 0.52083,-0.15626 1.03516,-0.35157 1.54297,-0.58594 0.52083,-0.24739 1.03516,-0.52734 1.54297,-0.83984 0.50781,-0.3125 0.97656,-0.61849 1.40625,-0.91797 0.4114,-0.290409 0.77472,-0.559743 1.10742,-0.816413"
			  id="path4417" class="dfGnBPMn_20"></path>
		<path style="font-style:normal;font-variant:normal;font-weight:normal;font-stretch:normal;font-size:medium;line-height:125%;font-family:Pacifico;-inkscape-font-specification:Pacifico;letter-spacing:0px;word-spacing:0px;fill:none;fill-opacity:1;stroke:#000000;stroke-width:1;stroke-linecap:round;stroke-linejoin:miter;stroke-miterlimit:4;stroke-dasharray:none;stroke-opacity:1"
			  d="m 129.77648,99.324257 c 0.19535,0.333709 0.40809,0.654115 0.65039,0.953133 0.61198,0.74218 1.3737,1.33463 2.28516,1.77734 0.92448,0.44271 1.9987,0.66406 3.22265,0.66406 0.78126,0 1.54948,-0.0846 2.30469,-0.2539 0.76823,-0.1823 1.50391,-0.41668 2.20703,-0.70313 0.71615,-0.29948 1.39323,-0.63802 2.03125,-1.01562 0.65105,-0.37761 1.25652,-0.761724 1.81641,-1.152352 0.24236,-0.171367 0.4795,-0.35217 0.7168,-0.533203 l 0.002,0.002"
			  id="path4415" class="dfGnBPMn_21"></path>
		<path style="font-style:normal;font-variant:normal;font-weight:normal;font-stretch:normal;font-size:medium;line-height:125%;font-family:Pacifico;-inkscape-font-specification:Pacifico;letter-spacing:0px;word-spacing:0px;fill:none;fill-opacity:1;stroke:#000000;stroke-width:1;stroke-linecap:round;stroke-linejoin:miter;stroke-miterlimit:4;stroke-dasharray:none;stroke-opacity:1"
			  d="m 145.01286,99.062585 c 0.23112,0.432944 0.4987,0.837239 0.80469,1.214845 0.61198,0.74218 1.3737,1.33463 2.28515,1.77734 0.92448,0.44271 1.9987,0.66406 3.22266,0.66406 0.78125,0 1.54947,-0.0846 2.30469,-0.2539 0.76822,-0.1823 1.5039,-0.41668 2.20703,-0.70313 0.71614,-0.29948 1.39322,-0.63802 2.03125,-1.01562 0.65104,-0.37761 1.25651,-0.761717 1.8164,-1.152345 0.35285,-0.249486 0.6989,-0.511276 1.04102,-0.78125"
			  id="path4413" class="dfGnBPMn_22"></path>
		<path style="font-style:normal;font-variant:normal;font-weight:normal;font-stretch:normal;font-size:medium;line-height:125%;font-family:Pacifico;-inkscape-font-specification:Pacifico;letter-spacing:0px;word-spacing:0px;fill:none;fill-opacity:1;stroke:#000000;stroke-width:1;stroke-linecap:round;stroke-linejoin:miter;stroke-miterlimit:4;stroke-dasharray:none;stroke-opacity:1"
			  d="m 160.72575,98.812585 c 0.0625,0.164264 0.12278,0.331401 0.18945,0.488282 0.45573,1.041663 0.98308,1.874993 1.58203,2.499993 0.61198,0.61198 1.26953,0.91797 1.97266,0.91797 0.4427,0 0.91797,-0.0586 1.42578,-0.17578 0.50781,-0.13021 1.02865,-0.29948 1.5625,-0.50781 0.53385,-0.20834 1.0612,-0.44271 1.58203,-0.70313 0.53385,-0.27343 1.04818,-0.54687 1.54297,-0.82031 1.13281,-0.651037 2.27865,-1.393225 3.4375,-2.226559 l -1.60156,-4.101562 c -0.89844,0.716146 -1.75782,1.347656 -2.57813,1.894531 -0.35156,0.234375 -0.71614,0.46875 -1.09375,0.703125 -0.3776,0.221354 -0.74869,0.423178 -1.11328,0.605469 -0.35156,0.169271 -0.69011,0.30599 -1.01562,0.410156 -0.3125,0.104167 -0.59245,0.15625 -0.83985,0.15625 -0.10417,0 -0.21484,-0.07161 -0.33203,-0.214843 -0.11719,-0.15625 -0.22786,-0.358073 -0.33203,-0.605469 -0.10417,-0.260417 -0.19531,-0.546875 -0.27344,-0.859375 -0.0651,-0.325521 -0.0976,-0.657552 -0.0976,-0.996094 l 0,-0.273438 c 0.039,-0.260416 0.0911,-0.527343 0.15624,-0.800781 0.0651,-0.273438 0.13018,-0.527344 0.19532,-0.761719 0.0651,-0.247396 0.13024,-0.47526 0.19531,-0.683593 0.0781,-0.208334 0.14971,-0.377605 0.21484,-0.507813 0.59896,-1.171875 1.23698,-2.369792 1.91407,-3.59375 0.6901,-1.236979 1.3737,-2.486979 2.05078,-3.75 0.67708,-1.276042 1.32812,-2.558593 1.95312,-3.847656 0.625,-1.289062 1.17188,-2.571614 1.64063,-3.847656 0.48177,-1.289063 0.85938,-2.565105 1.13281,-3.828125 0.28646,-1.276042 0.42969,-2.526042 0.42969,-3.75 0,-0.546875 -0.0456,-1.080729 -0.13672,-1.601563 -0.0781,-0.533854 -0.22136,-1.009114 -0.42969,-1.425781 -0.20833,-0.416667 -0.49479,-0.748698 -0.85937,-0.996094 -0.36459,-0.260416 -0.82683,-0.390625 -1.38672,-0.390625 -0.82032,0 -1.62761,0.247396 -2.42188,0.742188 -0.79427,0.494792 -1.55599,1.178386 -2.28515,2.050781 -0.72917,0.859375 -1.42579,1.875 -2.08985,3.046875 -0.66406,1.158855 -1.28255,2.408855 -1.85547,3.75 -0.5599,1.341146 -1.06771,2.740885 -1.52343,4.199219 -0.44271,1.458333 -0.82683,2.910156 -1.15235,4.355469 -0.32552,1.445312 -0.57292,2.851562 -0.74218,4.21875 -0.16928,1.354166 -0.25391,2.610677 -0.25391,3.769531 0,1.189518 0.0985,2.326786 0.25195,3.435547"
			  id="path4347" class="dfGnBPMn_23"></path>
		<path style="font-style:normal;font-variant:normal;font-weight:normal;font-stretch:normal;font-size:medium;line-height:125%;font-family:Pacifico;-inkscape-font-specification:Pacifico;letter-spacing:0px;word-spacing:0px;fill:none;fill-opacity:1;stroke:#000000;stroke-width:1;stroke-linecap:round;stroke-linejoin:miter;stroke-miterlimit:4;stroke-dasharray:none;stroke-opacity:1"
			  d="m 113.39564,88.851605 c 0.11719,-1.484375 0.28646,-3.001302 0.50781,-4.550781 0.0911,-0.664063 0.19532,-1.360678 0.3125,-2.089844 0.13022,-0.742188 0.26693,-1.490885 0.41016,-2.246094 0.15625,-0.768229 0.32553,-1.536458 0.50781,-2.304688 0.19532,-0.768229 0.40365,-1.510416 0.625,-2.226562 0.89844,-2.109375 1.67969,-3.717448 2.34375,-4.824219 0.66407,-1.106771 1.16537,-1.660156 1.50391,-1.660156 0.26041,0 0.39062,0.494792 0.39062,1.484375 0,0.651042 -0.17578,1.660156 -0.52734,3.027344 -0.33854,1.367187 -0.89192,3.046874 -1.66016,5.039062 -0.23437,0.585938 -0.53385,1.302084 -0.89843,2.148438 -0.35157,0.833333 -0.72917,1.72526 -1.13282,2.675781 -0.40364,0.9375 -0.8138,1.88802 -1.23046,2.851563 -0.41667,0.963541 -0.80078,1.855468 -1.15235,2.675781"
			  id="path4345" class="dfGnBPMn_24"></path>
		<path style="font-style:normal;font-variant:normal;font-weight:normal;font-stretch:normal;font-size:medium;line-height:125%;font-family:Pacifico;-inkscape-font-specification:Pacifico;letter-spacing:0px;word-spacing:0px;fill:none;fill-opacity:1;stroke:#000000;stroke-width:1;stroke-linecap:round;stroke-linejoin:miter;stroke-miterlimit:4;stroke-dasharray:none;stroke-opacity:1"
			  d="m 164.48942,87.093792 c 0,-1.25 0.0911,-2.532551 0.27344,-3.847656 0.18229,-1.328125 0.42968,-2.617188 0.74218,-3.867188 0.3125,-1.25 0.66407,-2.428385 1.05469,-3.535156 0.40365,-1.106771 0.82031,-2.076823 1.25,-2.910156 0.44271,-0.833333 0.87891,-1.490886 1.3086,-1.972656 0.4427,-0.494792 0.85286,-0.742188 1.23046,-0.742188 l -3e-5,0 c 0.10419,0 0.16279,0.136719 0.17578,0.410156 0.0261,0.260417 0.0391,0.579428 0.0391,0.957032 -0.11719,1.184896 -0.39063,2.467448 -0.82031,3.847656 -0.42969,1.367188 -0.9375,2.740886 -1.52344,4.121094 -0.58594,1.380208 -1.21094,2.721354 -1.875,4.023437 -0.65104,1.302084 -1.26953,2.473959 -1.85547,3.515625"
			  id="path4343" class="dfGnBPMn_25"></path>
		<path style="font-style:normal;font-variant:normal;font-weight:normal;font-stretch:normal;font-size:medium;line-height:125%;font-family:Pacifico;-inkscape-font-specification:Pacifico;letter-spacing:0px;word-spacing:0px;fill:none;fill-opacity:1;stroke:#000000;stroke-width:1;stroke-linecap:round;stroke-linejoin:miter;stroke-miterlimit:4;stroke-dasharray:none;stroke-opacity:1"
			  d="m 133.33705,93.539105 c 0,-0.286458 0.013,-0.63151 0.0391,-1.035157 0.026,-0.403645 0.0781,-0.820312 0.15625,-1.25 0.0911,-0.429687 0.21485,-0.852864 0.37109,-1.269531 0.16928,-0.429688 0.38412,-0.807292 0.64453,-1.132812 0.27344,-0.338542 0.60547,-0.611979 0.9961,-0.820313 0.40365,-0.208333 0.88542,-0.3125 1.44531,-0.3125 l -4e-5,0 c 0.3125,0 0.57292,0.188803 0.78125,0.566406 0.22135,0.377604 0.33203,0.859376 0.33203,1.445313 0,0.416667 -0.16276,0.846354 -0.48828,1.289063 -0.32552,0.442707 -0.72916,0.852864 -1.21094,1.230468 -0.46874,0.377604 -0.98307,0.690104 -1.54297,0.9375 -0.54687,0.234375 -1.05469,0.351563 -1.52343,0.351563"
			  id="path4341" class="dfGnBPMn_26"></path>
		<path style="font-style:normal;font-variant:normal;font-weight:normal;font-stretch:normal;font-size:medium;line-height:125%;font-family:Pacifico;-inkscape-font-specification:Pacifico;letter-spacing:0px;word-spacing:0px;fill:none;fill-opacity:1;stroke:#000000;stroke-width:1;stroke-linecap:round;stroke-linejoin:miter;stroke-miterlimit:4;stroke-dasharray:none;stroke-opacity:1"
			  d="m 148.72767,93.539105 c 0,-0.286458 0.013,-0.63151 0.0391,-1.035157 0.026,-0.403645 0.0781,-0.820312 0.15625,-1.25 0.0911,-0.429687 0.21485,-0.852864 0.3711,-1.269531 0.16927,-0.429688 0.38412,-0.807292 0.64453,-1.132812 0.27344,-0.338542 0.60547,-0.611979 0.99609,-0.820313 0.40365,-0.208333 0.88542,-0.3125 1.44532,-0.3125 l -4e-5,0 c 0.3125,0 0.57291,0.188803 0.78125,0.566406 0.22135,0.377604 0.33203,0.859376 0.33203,1.445313 0,0.416667 -0.16276,0.846354 -0.48828,1.289063 -0.32552,0.442707 -0.72917,0.852864 -1.21094,1.230468 -0.46875,0.377604 -0.98308,0.690104 -1.54297,0.9375 -0.54687,0.234375 -1.05468,0.351563 -1.52344,0.351563"
			  id="path3355" class="dfGnBPMn_27"></path>
	</g>
	<style></style>
</svg>
